<?xml version="1.0" standalone="no"?>
<!DOCTYPE svg PUBLIC "-//W3C//DTD SVG 20010904//EN"
 "http://www.w3.org/TR/2001/REC-SVG-20010904/DTD/svg10.dtd">
<svg version="1.0" xmlns="http://www.w3.org/2000/svg"
 width="1510.000000pt" height="1510.000000pt" viewBox="0 0 1510.000000 1510.000000"
 preserveAspectRatio="xMidYMid meet">
<metadata>
Created by potrace 1.14, written by Peter Selinger 2001-2017
</metadata>
<g transform="translate(0.000000,1510.000000) scale(0.100000,-0.100000)"
fill="#000000" stroke="none">
<path d="M7135 15089 c-1988 -112 -3831 -989 -5169 -2459 -1440 -1583 -2134
-3671 -1930 -5810 131 -1378 645 -2701 1480 -3807 1438 -1905 3657 -3013 6034
-3013 1643 0 3233 532 4537 1516 1905 1438 3013 3657 3013 6034 0 1643 -532
3233 -1516 4537 -1445 1914 -3681 3024 -6064 3011 -135 0 -308 -5 -385 -9z
m-1735 -3839 l0 -100 100 0 100 0 0 -100 0 -100 100 0 100 0 0 -100 0 -100
100 0 100 0 0 -100 0 -100 100 0 100 0 0 -300 0 -300 100 0 100 0 0 -100 0
-100 100 0 100 0 0 -200 0 -200 -200 0 -200 0 0 -100 0 -100 -200 0 -200 0 0
100 0 100 -100 0 -100 0 0 -100 0 -100 -100 0 -100 0 0 -100 0 -100 -300 0
-300 0 0 400 0 400 -100 0 -100 0 0 -700 0 -700 -200 0 -200 0 0 100 0 100
-100 0 -100 0 0 800 0 800 100 0 100 0 0 200 0 200 100 0 100 0 0 200 0 200
100 0 100 0 0 100 0 100 100 0 100 0 0 100 0 100 300 0 300 0 0 -100z m4800 0
l0 -100 100 0 100 0 0 -100 0 -100 100 0 100 0 0 -200 0 -200 100 0 100 0 0
-200 0 -200 100 0 100 0 0 -800 0 -800 -100 0 -100 0 0 -100 0 -100 -200 0
-200 0 0 700 0 700 -100 0 -100 0 0 -400 0 -400 -300 0 -300 0 0 100 0 100
-100 0 -100 0 0 100 0 100 -100 0 -100 0 0 -100 0 -100 -200 0 -200 0 0 100 0
100 -200 0 -200 0 0 200 0 200 100 0 100 0 0 100 0 100 100 0 100 0 0 300 0
300 100 0 100 0 0 100 0 100 100 0 100 0 0 100 0 100 100 0 100 0 0 100 0 100
100 0 100 0 0 100 0 100 300 0 300 0 0 -100z m-1200 -2800 l0 -100 300 0 300
0 0 -100 0 -100 300 0 300 0 0 -100 0 -100 200 0 200 0 0 -100 0 -100 200 0
200 0 0 -100 0 -100 100 0 100 0 0 -100 0 -100 100 0 100 0 0 -400 0 -400
-100 0 -100 0 0 -100 0 -100 -100 0 -100 0 0 -100 0 -100 -100 0 -100 0 0
-100 0 -100 -200 0 -200 0 0 -100 0 -100 -1000 0 -1000 0 0 100 0 100 -100 0
-100 0 0 100 0 100 -100 0 -100 0 0 100 0 100 -200 0 -200 0 0 100 0 100 -100
0 -100 0 0 -100 0 -100 -200 0 -200 0 0 -100 0 -100 -100 0 -100 0 0 -100 0
-100 -100 0 -100 0 0 -100 0 -100 -1000 0 -1000 0 0 100 0 100 -200 0 -200 0
0 100 0 100 -100 0 -100 0 0 100 0 100 -100 0 -100 0 0 100 0 100 -100 0 -100
0 0 400 0 400 100 0 100 0 0 100 0 100 100 0 100 0 0 100 0 100 200 0 200 0 0
100 0 100 200 0 200 0 0 100 0 100 300 0 300 0 0 100 0 100 300 0 300 0 0 100
0 100 1500 0 1500 0 0 -100z m-1200 -3000 l0 -100 100 0 100 0 0 -100 0 -100
100 0 100 0 0 -200 0 -200 -100 0 -100 0 0 -100 0 -100 400 0 400 0 0 -100 0
-100 300 0 300 0 0 -100 0 -100 200 0 200 0 0 -100 0 -100 -500 0 -500 0 0
100 0 100 -300 0 -300 0 0 100 0 100 -100 0 -100 0 0 100 0 100 -500 0 -500 0
0 -100 0 -100 -100 0 -100 0 0 -100 0 -100 -300 0 -300 0 0 -100 0 -100 -500
0 -500 0 0 100 0 100 200 0 200 0 0 100 0 100 300 0 300 0 0 100 0 100 400 0
400 0 0 100 0 100 -100 0 -100 0 0 200 0 200 100 0 100 0 0 100 0 100 100 0
100 0 0 100 0 100 300 0 300 0 0 -100z m-1200 -300 l0 -200 -500 0 -500 0 0
-100 0 -100 -600 0 -600 0 0 100 0 100 300 0 300 0 0 100 0 100 500 0 500 0 0
100 0 100 300 0 300 0 0 -200z m2400 100 l0 -100 500 0 500 0 0 -100 0 -100
300 0 300 0 0 -100 0 -100 -600 0 -600 0 0 100 0 100 -500 0 -500 0 0 200 0
200 300 0 300 0 0 -100z"/>
<path d="M5200 10450 l0 -100 -100 0 -100 0 0 -100 0 -100 -100 0 -100 0 0
-200 0 -200 300 0 300 0 0 -200 0 -200 100 0 100 0 0 500 0 500 -100 0 -100 0
0 100 0 100 -100 0 -100 0 0 -100z"/>
<path d="M9600 10450 l0 -100 -100 0 -100 0 0 -500 0 -500 100 0 100 0 0 200
0 200 300 0 300 0 0 200 0 200 -100 0 -100 0 0 100 0 100 -100 0 -100 0 0 100
0 100 -100 0 -100 0 0 -100z"/>
<path d="M5600 7650 l0 -100 -200 0 -200 0 0 -200 0 -200 -100 0 -100 0 0
-200 0 -200 100 0 100 0 0 -200 0 -200 200 0 200 0 0 -100 0 -100 100 0 100 0
0 100 0 100 200 0 200 0 0 200 0 200 100 0 100 0 0 200 0 200 -100 0 -100 0 0
200 0 200 -200 0 -200 0 0 100 0 100 -100 0 -100 0 0 -100z"/>
<path d="M9200 7650 l0 -100 -200 0 -200 0 0 -200 0 -200 -100 0 -100 0 0
-200 0 -200 100 0 100 0 0 -200 0 -200 200 0 200 0 0 -100 0 -100 100 0 100 0
0 100 0 100 200 0 200 0 0 200 0 200 100 0 100 0 0 200 0 200 -100 0 -100 0 0
200 0 200 -200 0 -200 0 0 100 0 100 -100 0 -100 0 0 -100z"/>
</g>
</svg>
